<svg xmlns="http://www.w3.org/2000/svg" viewBox="0 0 256 256" fill="none">
  <rect width="256" height="256" rx="56" fill="#f7f1e8" />
  <rect x="5" y="5" width="246" height="246" rx="51" stroke="#e4d5c3" stroke-width="10" />
  <path
    d="M40 168 82 72l46 57 42-57 46 96"
    stroke="#004c18"
    stroke-width="24"
    stroke-linecap="round"
    stroke-linejoin="round"
  />
  <path
    d="m66 168 62-52 62 52"
    stroke="#88a700"
    stroke-width="16"
    stroke-linecap="round"
    stroke-linejoin="round"
  />
  <path
    d="M90 172v-30l38-31 38 31v30"
    fill="#fffaf2"
    stroke="#d8c8b4"
    stroke-width="5"
    stroke-linejoin="round"
  />
  <path
    d="M114 144h13v13h-13zm17 0h13v13h-13zM114 161h13v13h-13zm17 0h13v13h-13z"
    fill="#d8950a"
  />
  <path
    d="M82 203c31-12 63-16 95-16 18 0 35 1 52 4"
    stroke="#0b5d1a"
    stroke-width="10"
    stroke-linecap="round"
  />
  <path
    d="M72 217c35-11 69-15 103-15 16 0 31 1 47 4"
    stroke="#cc970d"
    stroke-width="7"
    stroke-linecap="round"
  />
  <path
    d="M169 88h13l4 7v31h-17z"
    fill="#2a7f1d"
    stroke="#004c18"
    stroke-width="5"
    stroke-linejoin="round"
  />
  <path d="M167 85h22" stroke="#b9780d" stroke-width="8" stroke-linecap="round" />
  <path
    d="M177 62c6 8 5 14 0 20m8-25c6 8 6 15 1 20"
    stroke="#cc970d"
    stroke-width="5"
    stroke-linecap="round"
  />
</svg>
